<svg width="305" height="119" viewBox="0 0 305 119" fill="none" xmlns="http://www.w3.org/2000/svg">
<path d="M57.986 3.66431C25.964 3.66431 0 29.6249 0 61.6525C0 90.7768 21.4782 114.885 49.4648 119L103.396 25.6101C92.7716 12.2444 76.3801 3.66431 57.986 3.66431Z" fill="white"/>
<path d="M118.175 0L103.396 25.6101L157.316 119H186.895L118.175 0Z" fill="white"/>
<path d="M223.755 20.11C223.755 24.91 220.105 27.72 213.635 27.72H202.455V0H212.975C219.925 0 222.925 2.99 222.925 7.53C222.925 10.65 220.195 12.9 216.805 13.34C220.505 13.87 223.755 16.16 223.755 20.12V20.11ZM207.825 11.62H212.665C216.005 11.62 217.375 10.12 217.375 8.06C217.375 6 216.015 4.5 212.665 4.5H207.825V11.63V11.62ZM207.825 15.62V23.23H213.155C216.545 23.23 218.255 21.78 218.255 19.45C218.255 17.12 216.535 15.62 213.105 15.62H207.825V15.62Z" fill="white"/>
<path d="M249.805 27.72H229.955V0H249.405V4.71H235.415V11.18H245.315V15.84H235.415V23.01H249.805V27.72Z" fill="white"/>
<path d="M263.095 27.72V4.84H253.945V0H277.885V4.84H268.595V27.72H263.095V27.72Z" fill="white"/>
<path d="M296.975 20.9H287.685L285.615 27.72H280.205L289.095 0H295.875L304.765 27.72H299.045L296.975 20.9V20.9ZM289.005 16.63H295.655L292.395 5.98H292.215L289.005 16.63Z" fill="white"/>
</svg>
