<svg width="150" height="32" viewBox="0 0 150 32" fill="none" xmlns="http://www.w3.org/2000/svg">
<path d="M0 24.7547H9.26792C14.0679 24.7547 18.0226 23.2151 18.0226 18.4453C18.0226 15.034 15.6075 12.6189 11.7736 12.3774V12.2868C14.9434 11.9245 16.966 9.93208 16.966 6.6717C16.966 2.50566 13.9774 0.603775 9.56981 0.603775H0V1.3283C2.80755 1.3283 3.23019 1.8717 3.23019 3.71321V21.6453C3.23019 23.4868 2.80755 24.0302 0 24.0302V24.7547ZM6.61132 11.5925V2.1434C7.39623 1.90189 8.03019 1.84151 8.87547 1.84151C11.2906 1.84151 13.4943 3.26038 13.4943 6.70189C13.4943 10.2038 11.2906 11.7434 8.87547 11.7434C8.03019 11.7434 7.39623 11.7132 6.61132 11.5925ZM6.61132 23.2151V13.1623C7.39623 13.0415 8.03019 13.0113 8.87547 13.0113C11.2 13.0113 14.5509 14.1283 14.5509 18.3245C14.5509 22.4604 11.5925 23.517 8.81509 23.517C8.15094 23.517 7.39623 23.4264 6.61132 23.2151Z" fill="#9BA1A6"/>
<path d="M31.6854 22.7019C31.3231 23.6679 31.1118 24.1208 30.5986 24.1208C30.025 24.1208 29.9344 23.6377 29.9344 22.7019V13.0113C29.9344 9.72075 28.0325 8.21132 25.0137 8.21132C22.0854 8.21132 19.942 9.53962 19.942 11.7132C19.942 13.0415 20.5458 13.7962 21.6024 13.7962C22.5684 13.7962 23.2024 13.3132 23.2024 12.5887C23.2024 11.7736 22.7193 11.4415 22.7193 10.717C22.7193 9.81132 23.625 9.26793 24.8024 9.26793C26.825 9.26793 27.0967 10.6868 27.0967 12.9509V14.3698L25.6778 15.034C22.4778 16.483 19.0967 17.6906 19.0967 21.5547C19.0967 23.8792 20.3948 25.3585 22.508 25.3585C25.1344 25.3585 26.4627 23.1849 27.0363 22.2491H27.0967V22.3698C27.0967 24.2415 27.8816 25.3585 29.6627 25.3585C31.4137 25.3585 31.9571 24.2415 32.3797 22.7019H31.6854ZM23.8967 23.2453C22.7193 23.2453 21.9042 22.4302 21.9042 20.8C21.9042 18.6566 23.4439 17.2075 25.7684 16.1208L27.0967 15.4868V21.0717C25.9495 22.5509 25.0741 23.2453 23.8967 23.2453Z" fill="#9BA1A6"/>
<path d="M40.1842 18.1132C40.1238 22.0981 39.5804 23.5774 38.1917 23.5774C36.5314 23.5774 36.3502 21.766 36.3502 18.8075V10.083H39.8521V8.81509H36.3502V4.49811H35.4144C35.1427 7.63774 33.9653 8.72453 31.188 8.81509V10.083H33.5427V19.7736C33.5427 23.8189 34.9616 25.3585 37.3465 25.3585C40.2144 25.3585 40.8483 22.8226 40.8785 18.1132H40.1842Z" fill="#9BA1A6"/>
<path d="M49.3976 18.1132C49.3373 22.0981 48.7939 23.5774 47.4052 23.5774C45.7448 23.5774 45.5637 21.766 45.5637 18.8075V10.083H49.0656V8.81509H45.5637V4.49811H44.6278C44.3561 7.63774 43.1788 8.72453 40.4014 8.81509V10.083H42.7561V19.7736C42.7561 23.8189 44.175 25.3585 46.5599 25.3585C49.4278 25.3585 50.0618 22.8226 50.092 18.1132H49.3976Z" fill="#9BA1A6"/>
<path d="M61.4269 18.4151C60.5816 21.9774 59.1929 23.1245 57.7439 23.1245C55.359 23.1245 54.1212 20.166 54.1212 16.0604V15.9396H62.1212C62.1212 11.5321 60.4307 8.21132 56.9891 8.21132C53.3061 8.21132 51.1929 12.2566 51.1929 16.9057C51.1929 22.0679 53.2759 25.3585 56.7174 25.3585C59.525 25.3585 61.5175 23.0641 62.1514 18.4151H61.4269ZM56.8684 9.47925C58.6797 9.47925 59.2231 11.8038 59.2231 14.7019H54.1514C54.3024 11.6528 55.0873 9.47925 56.8684 9.47925Z" fill="#9BA1A6"/>
<path d="M71.8158 8.21132C69.8535 8.21132 68.5554 9.93208 67.7705 11.3509H67.6799V8.63396L67.2573 8.21132L65.1139 9.29811L62.8498 10.4151L63.1818 11.0491C64.8724 10.2038 64.8422 10.5962 64.8422 12.5585V21.6453C64.8422 23.5774 64.5403 24.0302 62.6988 24.0302V24.7547H70.8498V24.0302C68.1026 24.0302 67.6799 23.5774 67.6799 21.6453V13.0717C68.6762 11.3208 69.3705 10.3849 70.2762 10.3849C70.5781 10.3849 70.7592 10.5358 70.9705 10.8981C71.2422 11.3811 71.6045 11.7434 72.4498 11.7434C73.4762 11.7434 74.0498 10.9585 74.0498 10.0528C74.0498 8.93585 73.1139 8.21132 71.8158 8.21132Z" fill="#9BA1A6"/>
<path d="M74.3276 29.7962C74.3276 31.0943 75.4446 32 77.0748 32C80.6974 32 81.4521 27.9849 82.5087 24.2113L85.8295 11.834C86.3427 9.96226 86.8559 9.53962 88.1238 9.53962V8.81509H83.1125V9.53962C85.0446 9.53962 85.0446 9.96226 84.5616 11.834L82.388 20.317L79.8823 11.834C79.3087 9.93208 79.3087 9.53962 81.2408 9.53962V8.81509H74.1163V9.53962C75.4144 9.53962 75.9578 9.93208 76.5615 11.8038L80.9087 25.1472C80.2144 28.2566 79.5502 29.6151 78.4634 29.6151C77.9804 29.6151 77.7993 29.434 77.4672 28.9811C77.1653 28.5887 76.7427 28.1358 75.9276 28.1358C75.0823 28.1358 74.3276 28.8 74.3276 29.7962Z" fill="#9BA1A6"/>
<path d="M104.156 0.603775H94.3148V1.3283C97.1224 1.3283 97.545 1.8717 97.545 3.71321V21.6453C97.545 23.4868 97.1224 24.0302 94.3148 24.0302V24.7547H110.164L110.345 24.0302L111.885 17.9925L111.19 17.8113C109.953 22.6415 109.198 23.517 107.356 23.517H102.798C101.288 23.517 100.926 23.2151 100.926 21.4943V3.71321C100.926 1.8717 101.349 1.3283 104.156 1.3283V0.603775Z" fill="#9BA1A6"/>
<path d="M124.998 22.7019C124.636 23.6679 124.424 24.1208 123.911 24.1208C123.337 24.1208 123.247 23.6377 123.247 22.7019V13.0113C123.247 9.72075 121.345 8.21132 118.326 8.21132C115.398 8.21132 113.254 9.53962 113.254 11.7132C113.254 13.0415 113.858 13.7962 114.915 13.7962C115.881 13.7962 116.515 13.3132 116.515 12.5887C116.515 11.7736 116.032 11.4415 116.032 10.717C116.032 9.81132 116.937 9.26793 118.115 9.26793C120.137 9.26793 120.409 10.6868 120.409 12.9509V14.3698L118.99 15.034C115.79 16.483 112.409 17.6906 112.409 21.5547C112.409 23.8792 113.707 25.3585 115.821 25.3585C118.447 25.3585 119.775 23.1849 120.349 22.2491H120.409V22.3698C120.409 24.2415 121.194 25.3585 122.975 25.3585C124.726 25.3585 125.27 24.2415 125.692 22.7019H124.998ZM117.209 23.2453C116.032 23.2453 115.217 22.4302 115.217 20.8C115.217 18.6566 116.756 17.2075 119.081 16.1208L120.409 15.4868V21.0717C119.262 22.5509 118.387 23.2453 117.209 23.2453Z" fill="#9BA1A6"/>
<path d="M126.7 22.9736C128.33 24.1208 130.202 25.3585 132.617 25.3585C136.602 25.3585 139.138 20.9811 139.138 15.6377C139.138 10.8981 137.145 8.21132 134.368 8.21132C132.375 8.21132 130.957 9.47925 129.628 11.2604H129.508V0.422641L129.115 0L124.768 2.17359L125.1 2.80755C126.73 1.99245 126.7 2.35472 126.7 4.31698V22.9736ZM129.508 22.3396V12.4981C130.443 11.3208 131.53 10.1132 133.1 10.1132C134.911 10.1132 135.908 12.1057 135.908 16.5132C135.908 20.1358 135.062 24.1208 132.436 24.1208C131.258 24.1208 130.292 23.2151 129.508 22.3396Z" fill="#9BA1A6"/>
<path d="M140.432 25.0566H141.127C141.127 24.4528 141.217 24.1509 141.61 24.1509C142.244 24.1509 143.21 25.3585 145.595 25.3585C147.798 25.3585 149.761 24.0604 149.761 21.2226C149.761 18.6868 148.462 17.3887 145.715 15.034C143.904 13.4642 142.757 12.4679 142.757 11.0792C142.757 10.3547 143.21 9.47925 144.478 9.47925C146.41 9.47925 147.738 11.2604 148.161 13.4943H148.855V8.51321H148.161C148.161 9.11698 148.161 9.41887 147.798 9.41887C147.285 9.41887 146.5 8.21132 144.357 8.21132C142.002 8.21132 140.402 9.75094 140.402 11.9849C140.402 14.3094 141.972 15.6075 144.025 17.4189C146.078 19.2302 147.406 20.3472 147.406 22.0981C147.406 23.3358 146.802 24.1208 145.504 24.1208C143.119 24.1208 141.549 21.917 141.127 18.9887H140.432V25.0566Z" fill="#9BA1A6"/>
</svg>
