<?xml version="1.0" standalone="no"?>
<!DOCTYPE svg PUBLIC "-//W3C//DTD SVG 20010904//EN"
 "http://www.w3.org/TR/2001/REC-SVG-20010904/DTD/svg10.dtd">
<svg version="1.0" xmlns="http://www.w3.org/2000/svg"
 width="700.000000pt" height="700.000000pt" viewBox="0 0 700.000000 700.000000"
 preserveAspectRatio="xMidYMid meet">
<metadata>
Created by potrace 1.14, written by Peter Selinger 2001-2017
</metadata>
<g transform="translate(0.000000,700.000000) scale(0.100000,-0.100000)"
fill="#000000" stroke="none">
<path d="M3280 6994 c-622 -36 -1258 -260 -1784 -628 -396 -278 -752 -661
-1001 -1077 -540 -904 -642 -1995 -279 -2997 227 -626 648 -1189 1198 -1601
369 -277 858 -501 1322 -606 298 -67 335 -70 764 -70 388 0 398 1 555 29 748
131 1362 442 1889 956 549 535 877 1173 1018 1975 21 121 23 158 23 525 0 386
-1 398 -28 552 -136 773 -454 1387 -996 1928 -289 288 -580 494 -954 675 -341
165 -677 264 -1067 316 -141 19 -510 32 -660 23z m1092 -2169 c499 -855 1564
-2702 1575 -2731 4 -12 -50 -14 -383 -14 l-389 0 -495 857 c-755 1308 -887
1530 -901 1515 -8 -8 -361 -617 -997 -1722 l-401 -695 -38 3 c-103 8 -363 101
-497 177 -256 146 -491 398 -617 661 -53 111 -102 264 -125 389 -25 133 -26
409 -1 543 39 214 136 441 263 619 78 109 248 277 359 355 472 330 1094 366
1602 92 115 -62 231 -151 353 -270 92 -89 107 -101 116 -86 6 9 62 105 124
212 251 434 251 434 265 413 6 -10 91 -153 187 -318z"/>
</g>
</svg>
