<?xml version="1.0" standalone="no"?><svg xmlns="http://www.w3.org/2000/svg" viewBox="0 0 1440 320"><path fill="#F4F1FF" fill-opacity="1" d="M0,96L26.7,112C53.3,128,107,160,160,149.3C213.3,139,267,85,320,80C373.3,75,427,117,480,112C533.3,107,587,53,640,42.7C693.3,32,747,64,800,80C853.3,96,907,96,960,101.3C1013.3,107,1067,117,1120,144C1173.3,171,1227,213,1280,213.3C1333.3,213,1387,171,1413,149.3L1440,128L1440,0L1413.3,0C1386.7,0,1333,0,1280,0C1226.7,0,1173,0,1120,0C1066.7,0,1013,0,960,0C906.7,0,853,0,800,0C746.7,0,693,0,640,0C586.7,0,533,0,480,0C426.7,0,373,0,320,0C266.7,0,213,0,160,0C106.7,0,53,0,27,0L0,0Z"></path></svg>