<?xml version="1.0" standalone="no"?><svg xmlns="http://www.w3.org/2000/svg" viewBox="0 0 1440 320"><path fill="#F4F1FF" fill-opacity="1" d="M0,0L26.7,5.3C53.3,11,107,21,160,58.7C213.3,96,267,160,320,197.3C373.3,235,427,245,480,224C533.3,203,587,149,640,138.7C693.3,128,747,160,800,165.3C853.3,171,907,149,960,122.7C1013.3,96,1067,64,1120,80C1173.3,96,1227,160,1280,170.7C1333.3,181,1387,139,1413,117.3L1440,96L1440,320L1413.3,320C1386.7,320,1333,320,1280,320C1226.7,320,1173,320,1120,320C1066.7,320,1013,320,960,320C906.7,320,853,320,800,320C746.7,320,693,320,640,320C586.7,320,533,320,480,320C426.7,320,373,320,320,320C266.7,320,213,320,160,320C106.7,320,53,320,27,320L0,320Z"></path></svg>