<svg width="278" height="132" viewBox="0 0 278 132" fill="none" xmlns="http://www.w3.org/2000/svg">
<path d="M174.706 96.6074C189.056 71.751 180.577 39.9831 155.76 25.6552C133.193 12.626 104.887 18.5128 89.156 38.3961L137.35 122.038C152.468 119.771 166.462 110.885 174.706 96.6074Z" fill="#3B3B40"/>
<path d="M196.713 85.8078L243.513 23.2356H262.346V85.5259H277.243V99.055H262.346V121.885H247.027V99.055H196.713V85.8078ZM212.313 85.5259H247.027V39.3014L212.313 85.5259Z" fill="#3B3B40"/>
<path d="M0.755859 85.8078L47.5563 23.2356H66.3889V85.5259H81.2863V99.055H66.3889V121.885H51.0698V99.055H0.755859V85.8078ZM16.356 85.5259H51.0698V39.3014L16.356 85.5259Z" fill="#3B3B40"/>
</svg>
