<svg width="628" height="312" viewBox="0 0 628 312" fill="none" xmlns="http://www.w3.org/2000/svg">
<g clip-path="url(#clip0_1_93)">
<path opacity="0.3" d="M38.5 23C38.5 18.8579 41.8579 15.5 46 15.5H580C584.142 15.5 587.5 18.8579 587.5 23V411C587.5 415.142 584.142 418.5 580 418.5H46C41.8579 418.5 38.5 415.142 38.5 411V23Z" stroke="#5E5F6C"/>
<path opacity="0.1" d="M541.74 87.5049H376.731C373.432 87.5049 370.758 90.1792 370.758 93.478V413.042C370.758 416.341 373.432 419.015 376.731 419.015H541.74C545.039 419.015 547.713 416.341 547.713 413.042V93.478C547.713 90.1792 545.039 87.5049 541.74 87.5049Z" fill="#5E5F6C"/>
<path d="M140.871 143.553C143.324 142.126 145.824 140.781 148.368 139.521L162.453 167.956C160.546 168.901 158.671 169.909 156.831 170.98L140.871 143.553Z" fill="#F5B87D"/>
<path d="M133.549 148.156C135.937 146.539 138.38 145.003 140.873 143.553L156.833 170.979C154.963 172.067 153.131 173.219 151.339 174.431L133.549 148.156Z" fill="#AAE943"/>
<path d="M125.033 154.456C127.783 152.239 130.625 150.136 133.55 148.156L151.341 174.432C149.147 175.917 147.016 177.494 144.953 179.157L125.033 154.456Z" fill="#F2A46F"/>
<path d="M115.461 163.005C118.504 159.996 121.697 157.143 125.028 154.456L144.948 179.157C142.45 181.172 140.055 183.312 137.773 185.568L115.461 163.005Z" fill="#7C9CD6"/>
<path d="M106.683 172.626C109.443 169.271 112.373 166.06 115.462 163.005L137.774 185.568C135.457 187.86 133.259 190.268 131.189 192.785L106.683 172.626Z" fill="#7E7FD7"/>
<path d="M97.7197 184.963C100.457 180.675 103.45 176.555 106.682 172.626L131.189 192.784C128.765 195.731 126.52 198.821 124.467 202.037L97.7197 184.963Z" fill="#5B9BD5"/>
<path d="M87.8203 203.778C90.5878 197.241 93.8988 190.947 97.7187 184.963L124.466 202.037C121.601 206.525 119.118 211.245 117.042 216.148L87.8203 203.778Z" fill="#5AA0EC"/>
<path d="M80.3047 228.076C81.991 219.745 84.5098 211.605 87.8231 203.779L117.045 216.149C114.56 222.019 112.671 228.124 111.406 234.371L80.3047 228.076Z" fill="#351C75"/>
<path d="M204.709 126.331C252.168 126.331 295.662 152.807 317.459 194.964C339.256 237.121 335.714 287.916 308.276 326.64C280.839 365.364 234.09 385.546 187.091 378.959L191.495 347.534C226.745 352.474 261.806 337.337 282.385 308.295C302.963 279.252 305.619 241.156 289.272 209.538C272.924 177.92 240.303 158.063 204.709 158.063V126.331Z" fill="#424798"/>
<path d="M148.368 139.521C165.883 130.845 185.164 126.331 204.71 126.331V158.063C190.051 158.063 175.59 161.448 162.454 167.955L148.368 139.521Z" fill="#F28446"/>
<path d="M187.092 378.959C152.435 374.101 121.321 355.151 101.104 326.585C80.8871 298.02 73.3609 262.376 80.3043 228.076L111.406 234.372C106.198 260.097 111.843 286.83 127.006 308.254C142.168 329.678 165.504 343.891 191.497 347.534L187.092 378.959Z" fill="#797FDF"/>
<path d="M393.904 103.185H390.171C387.697 103.185 385.691 105.191 385.691 107.665V111.398C385.691 113.872 387.697 115.878 390.171 115.878H393.904C396.378 115.878 398.384 113.872 398.384 111.398V107.665C398.384 105.191 396.378 103.185 393.904 103.185Z" fill="#FBBC04"/>
<path d="M393.904 181.582H390.171C387.697 181.582 385.691 183.588 385.691 186.062V189.795C385.691 192.269 387.697 194.275 390.171 194.275H393.904C396.378 194.275 398.384 192.269 398.384 189.795V186.062C398.384 183.588 396.378 181.582 393.904 181.582Z" fill="#351C75"/>
<path d="M393.904 259.979H390.171C387.697 259.979 385.691 261.985 385.691 264.459V268.192C385.691 270.666 387.697 272.672 390.171 272.672H393.904C396.378 272.672 398.384 270.666 398.384 268.192V264.459C398.384 261.985 396.378 259.979 393.904 259.979Z" fill="#AAE943"/>
<path d="M393.904 129.317H390.171C387.697 129.317 385.691 131.323 385.691 133.797V137.53C385.691 140.004 387.697 142.01 390.171 142.01H393.904C396.378 142.01 398.384 140.004 398.384 137.53V133.797C398.384 131.323 396.378 129.317 393.904 129.317Z" fill="#5D6076"/>
<path d="M393.904 207.715H390.171C387.697 207.715 385.691 209.721 385.691 212.195V215.928C385.691 218.402 387.697 220.408 390.171 220.408H393.904C396.378 220.408 398.384 218.402 398.384 215.928V212.195C398.384 209.721 396.378 207.715 393.904 207.715Z" fill="#F74BFB"/>
<path d="M393.904 286.112H390.171C387.697 286.112 385.691 288.118 385.691 290.592V294.325C385.691 296.799 387.697 298.805 390.171 298.805H393.904C396.378 298.805 398.384 296.799 398.384 294.325V290.592C398.384 288.118 396.378 286.112 393.904 286.112Z" fill="#7E7FD7"/>
<path d="M393.904 155.449H390.171C387.697 155.449 385.691 157.455 385.691 159.929V163.662C385.691 166.136 387.697 168.142 390.171 168.142H393.904C396.378 168.142 398.384 166.136 398.384 163.662V159.929C398.384 157.455 396.378 155.449 393.904 155.449Z" fill="#5B9BD5"/>
<path d="M393.904 233.848H390.171C387.697 233.848 385.691 235.854 385.691 238.328V242.061C385.691 244.535 387.697 246.541 390.171 246.541H393.904C396.378 246.541 398.384 244.535 398.384 242.061V238.328C398.384 235.854 396.378 233.848 393.904 233.848Z" fill="#7C9CD6"/>
<path d="M410.878 55H376.638C373.39 55 370.758 57.6325 370.758 60.8798C370.758 64.1271 373.39 66.7596 376.638 66.7596H410.878C414.126 66.7596 416.758 64.1271 416.758 60.8798C416.758 57.6325 414.126 55 410.878 55Z" fill="#5E5F6C"/>
<path d="M193.596 53H84.9687C80.9997 53 77.7822 56.2175 77.7822 60.1865C77.7822 64.1554 80.9997 67.3729 84.9687 67.3729H193.596C197.565 67.3729 200.782 64.1554 200.782 60.1865C200.782 56.2175 197.565 53 193.596 53Z" fill="#5E5F6C"/>
<path opacity="0.3" d="M528.234 106.171H497.688C494.801 106.171 492.461 108.511 492.461 111.398C492.461 114.284 494.801 116.624 497.688 116.624H528.234C531.121 116.624 533.461 114.284 533.461 111.398C533.461 108.511 531.121 106.171 528.234 106.171Z" fill="#5E5F6C"/>
<path opacity="0.5" d="M456.371 111.397H411.825C408.938 111.397 406.598 113.737 406.598 116.623C406.598 119.51 408.938 121.85 411.825 121.85H456.371C459.258 121.85 461.598 119.51 461.598 116.623C461.598 113.737 459.258 111.397 456.371 111.397Z" fill="#5E5F6C"/>
<path opacity="0.5" d="M456.371 141.264H411.825C408.938 141.264 406.598 143.604 406.598 146.491C406.598 149.377 408.938 151.717 411.825 151.717H456.371C459.258 151.717 461.598 149.377 461.598 146.491C461.598 143.604 459.258 141.264 456.371 141.264Z" fill="#5E5F6C"/>
<path opacity="0.5" d="M456.371 171.129H411.825C408.938 171.129 406.598 173.469 406.598 176.356C406.598 179.242 408.938 181.582 411.825 181.582H456.371C459.258 181.582 461.598 179.242 461.598 176.356C461.598 173.469 459.258 171.129 456.371 171.129Z" fill="#5E5F6C"/>
<path opacity="0.5" d="M456.371 200.995H411.825C408.938 200.995 406.598 203.335 406.598 206.221C406.598 209.108 408.938 211.448 411.825 211.448H456.371C459.258 211.448 461.598 209.108 461.598 206.221C461.598 203.335 459.258 200.995 456.371 200.995Z" fill="#5E5F6C"/>
<path opacity="0.5" d="M456.371 230.861H411.825C408.938 230.861 406.598 233.201 406.598 236.087C406.598 238.974 408.938 241.314 411.825 241.314H456.371C459.258 241.314 461.598 238.974 461.598 236.087C461.598 233.201 459.258 230.861 456.371 230.861Z" fill="#5E5F6C"/>
<path opacity="0.5" d="M456.371 260.727H411.825C408.938 260.727 406.598 263.067 406.598 265.953C406.598 268.84 408.938 271.18 411.825 271.18H456.371C459.258 271.18 461.598 268.84 461.598 265.953C461.598 263.067 459.258 260.727 456.371 260.727Z" fill="#5E5F6C"/>
<path opacity="0.5" d="M456.371 290.593H411.825C408.938 290.593 406.598 292.933 406.598 295.82C406.598 298.706 408.938 301.046 411.825 301.046H456.371C459.258 301.046 461.598 298.706 461.598 295.82C461.598 292.933 459.258 290.593 456.371 290.593Z" fill="#5E5F6C"/>
<path opacity="0.3" d="M527.488 132.304H496.941C494.055 132.304 491.715 134.644 491.715 137.531C491.715 140.417 494.055 142.757 496.941 142.757H527.488C530.375 142.757 532.715 140.417 532.715 137.531C532.715 134.644 530.375 132.304 527.488 132.304Z" fill="#5E5F6C"/>
<path opacity="0.3" d="M527.941 158.437H507.395C504.508 158.437 502.168 160.777 502.168 163.664C502.168 166.55 504.508 168.89 507.395 168.89H527.941C530.828 168.89 533.168 166.55 533.168 163.664C533.168 160.777 530.828 158.437 527.941 158.437Z" fill="#5E5F6C"/>
<path opacity="0.3" d="M527.701 184.568H505.155C502.268 184.568 499.928 186.908 499.928 189.794C499.928 192.681 502.268 195.021 505.155 195.021H527.701C530.588 195.021 532.928 192.681 532.928 189.794C532.928 186.908 530.588 184.568 527.701 184.568Z" fill="#5E5F6C"/>
<path opacity="0.3" d="M527.927 210.701H510.381C507.494 210.701 505.154 213.041 505.154 215.927C505.154 218.814 507.494 221.154 510.381 221.154H527.927C530.814 221.154 533.154 218.814 533.154 215.927C533.154 213.041 530.814 210.701 527.927 210.701Z" fill="#5E5F6C"/>
<path opacity="0.3" d="M527.195 236.834H506.648C503.761 236.834 501.421 239.174 501.421 242.06C501.421 244.947 503.761 247.287 506.648 247.287H527.195C530.081 247.287 532.421 244.947 532.421 242.06C532.421 239.174 530.081 236.834 527.195 236.834Z" fill="#5E5F6C"/>
<path opacity="0.3" d="M527.927 262.967H510.381C507.494 262.967 505.154 265.307 505.154 268.194C505.154 271.08 507.494 273.42 510.381 273.42H527.927C530.814 273.42 533.154 271.08 533.154 268.194C533.154 265.307 530.814 262.967 527.927 262.967Z" fill="#5E5F6C"/>
<path opacity="0.3" d="M527.927 289.099H510.381C507.494 289.099 505.154 291.439 505.154 294.326C505.154 297.212 507.494 299.552 510.381 299.552H527.927C530.814 299.552 533.154 297.212 533.154 294.326C533.154 291.439 530.814 289.099 527.927 289.099Z" fill="#5E5F6C"/>
<mask id="mask0_1_93" style="mask-type:alpha" maskUnits="userSpaceOnUse" x="0" y="3" width="628" height="306">
<path d="M628 3H0V309H628V3Z" fill="#D9D9D9"/>
</mask>
<g mask="url(#mask0_1_93)">
</g>
</g>
<path d="M607 0H21V312H607V0Z" fill="url(#paint0_linear_1_93)"/>
<defs>
<linearGradient id="paint0_linear_1_93" x1="161.5" y1="295.5" x2="161.5" y2="-214" gradientUnits="userSpaceOnUse">
<stop stop-color="#0F1014"/>
<stop offset="1" stop-color="#0F1014" stop-opacity="0"/>
</linearGradient>
<clipPath id="clip0_1_93">
<rect width="628" height="306" fill="white" transform="translate(0 3)"/>
</clipPath>
</defs>
</svg>
